STARTFONT 2.1
FONT -nil-ProFont-medium-r-normal--11-110-72-72-c-60-iso8859-1
SIZE 11 72 72
FONTBOUNDINGBOX 6 12 0 -3
STARTPROPERTIES 16
CHARSET_COLLECTIONS "ISO8859-2 ISO8859-5 ISO8859-9 ISO8859-4 ISO10646-1"
POINT_SIZE 110
RESOLUTION_X 72
RESOLUTION_Y 72
FAMILY_NAME "ProFont"
WEIGHT_NAME "Medium"
SLANT "R"
SETWIDTH_NAME "Normal"
ADD_STYLE_NAME ""
SPACING "P"
AVERAGE_WIDTH 60
CHARSET_REGISTRY "ISO10646"
CHARSET_ENCODING "1"
FONT_ASCENT 9
FONT_DESCENT 2
_GBDFED_INFO "Edited with gbdfed 1.6."
ENDPROPERTIES
CHARS 415
STARTCHAR <control>
ENCODING 0
SWIDTH 545 0
DWIDTH 6 0
BBX 0 0 0 0
BITMAP
ENDCHAR
STARTCHAR <control>
ENCODING 1
SWIDTH 545 0
DWIDTH 6 0
BBX 0 0 0 0
BITMAP
ENDCHAR
STARTCHAR <control>
ENCODING 2
SWIDTH 545 0
DWIDTH 6 0
BBX 0 0 0 0
BITMAP
ENDCHAR
STARTCHAR <control>
ENCODING 3
SWIDTH 545 0
DWIDTH 6 0
BBX 0 0 0 0
BITMAP
ENDCHAR
STARTCHAR <control>
ENCODING 4
SWIDTH 545 0
DWIDTH 6 0
BBX 0 0 0 0
BITMAP
ENDCHAR
STARTCHAR <control>
ENCODING 5
SWIDTH 545 0
DWIDTH 6 0
BBX 0 0 0 0
BITMAP
ENDCHAR
STARTCHAR <control>
ENCODING 6
SWIDTH 545 0
DWIDTH 6 0
BBX 0 0 0 0
BITMAP
ENDCHAR
STARTCHAR <control>
ENCODING 7
SWIDTH 545 0
DWIDTH 6 0
BBX 0 0 0 0
BITMAP
ENDCHAR
STARTCHAR <control>
ENCODING 8
SWIDTH 545 0
DWIDTH 6 0
BBX 0 0 0 0
BITMAP
ENDCHAR
STARTCHAR <control>
ENCODING 9
SWIDTH 545 0
DWIDTH 6 0
BBX 0 0 0 0
BITMAP
ENDCHAR
STARTCHAR <control>
ENCODING 10
SWIDTH 545 0
DWIDTH 6 0
BBX 0 0 0 0
BITMAP
ENDCHAR
STARTCHAR <control>
ENCODING 11
SWIDTH 545 0
DWIDTH 6 0
BBX 0 0 0 0
BITMAP
ENDCHAR
STARTCHAR <control>
ENCODING 12
SWIDTH 545 0
DWIDTH 6 0
BBX 0 0 0 0
BITMAP
ENDCHAR
STARTCHAR <control>
ENCODING 13
SWIDTH 545 0
DWIDTH 6 0
BBX 0 0 0 0
BITMAP
ENDCHAR
STARTCHAR <control>
ENCODING 14
SWIDTH 545 0
DWIDTH 6 0
BBX 0 0 0 0
BITMAP
ENDCHAR
STARTCHAR <control>
ENCODING 15
SWIDTH 545 0
DWIDTH 6 0
BBX 0 0 0 0
BITMAP
ENDCHAR
STARTCHAR <control>
ENCODING 16
SWIDTH 545 0
DWIDTH 6 0
BBX 0 0 0 0
BITMAP
ENDCHAR
STARTCHAR <control>
ENCODING 17
SWIDTH 545 0
DWIDTH 6 0
BBX 0 0 0 0
BITMAP
ENDCHAR
STARTCHAR <control>
ENCODING 18
SWIDTH 545 0
DWIDTH 6 0
BBX 0 0 0 0
BITMAP
ENDCHAR
STARTCHAR <control>
ENCODING 19
SWIDTH 545 0
DWIDTH 6 0
BBX 0 0 0 0
BITMAP
ENDCHAR
STARTCHAR <control>
ENCODING 20
SWIDTH 545 0
DWIDTH 6 0
BBX 0 0 0 0
BITMAP
ENDCHAR
STARTCHAR <control>
ENCODING 21
SWIDTH 545 0
DWIDTH 6 0
BBX 0 0 0 0
BITMAP
ENDCHAR
STARTCHAR <control>
ENCODING 22
SWIDTH 545 0
DWIDTH 6 0
BBX 0 0 0 0
BITMAP
ENDCHAR
STARTCHAR <control>
ENCODING 23
SWIDTH 545 0
DWIDTH 6 0
BBX 0 0 0 0
BITMAP
ENDCHAR
STARTCHAR <control>
ENCODING 24
SWIDTH 545 0
DWIDTH 6 0
BBX 0 0 0 0
BITMAP
ENDCHAR
STARTCHAR <control>
ENCODING 25
SWIDTH 545 0
DWIDTH 6 0
BBX 0 0 0 0
BITMAP
ENDCHAR
STARTCHAR <control>
ENCODING 26
SWIDTH 545 0
DWIDTH 6 0
BBX 0 0 0 0
BITMAP
ENDCHAR
STARTCHAR <control>
ENCODING 27
SWIDTH 545 0
DWIDTH 6 0
BBX 0 0 0 0
BITMAP
ENDCHAR
STARTCHAR <control>
ENCODING 28
SWIDTH 545 0
DWIDTH 6 0
BBX 0 0 0 0
BITMAP
ENDCHAR
STARTCHAR <control>
ENCODING 29
SWIDTH 545 0
DWIDTH 6 0
BBX 0 0 0 0
BITMAP
ENDCHAR
STARTCHAR <control>
ENCODING 30
SWIDTH 545 0
DWIDTH 6 0
BBX 0 0 0 0
BITMAP
ENDCHAR
STARTCHAR <control>
ENCODING 31
SWIDTH 545 0
DWIDTH 6 0
BBX 0 0 0 0
BITMAP
ENDCHAR
STARTCHAR SPACE
ENCODING 32
SWIDTH 545 0
DWIDTH 6 0
BBX 0 0 0 0
BITMAP
ENDCHAR
STARTCHAR EXCLAMATION MARK
ENCODING 33
SWIDTH 545 0
DWIDTH 6 0
BBX 1 7 2 0
BITMAP
80
80
80
80
80
00
80
ENDCHAR
STARTCHAR QUOTATION MARK
ENCODING 34
SWIDTH 545 0
DWIDTH 6 0
BBX 3 3 1 5
BITMAP
A0
A0
A0
ENDCHAR
STARTCHAR NUMBER SIGN
ENCODING 35
SWIDTH 545 0
DWIDTH 6 0
BBX 5 5 0 2
BITMAP
50
F8
50
F8
50
ENDCHAR
STARTCHAR DOLLAR SIGN
ENCODING 36
SWIDTH 545 0
DWIDTH 6 0
BBX 5 9 0 -1
BITMAP
20
70
A8
A0
70
28
A8
70
20
ENDCHAR
STARTCHAR PERCENT SIGN
ENCODING 37
SWIDTH 545 0
DWIDTH 6 0
BBX 5 7 0 0
BITMAP
48
A8
50
20
50
A8
90
ENDCHAR
STARTCHAR AMPERSAND
ENCODING 38
SWIDTH 545 0
DWIDTH 6 0
BBX 5 7 0 0
BITMAP
60
90
A0
40
A8
90
68
ENDCHAR
STARTCHAR APOSTROPHE
ENCODING 39
SWIDTH 545 0
DWIDTH 6 0
BBX 1 3 2 5
BITMAP
80
80
80
ENDCHAR
STARTCHAR LEFT PARENTHESIS
ENCODING 40
SWIDTH 545 0
DWIDTH 6 0
BBX 3 9 1 -1
BITMAP
20
40
80
80
80
80
80
40
20
ENDCHAR
STARTCHAR RIGHT PARENTHESIS
ENCODING 41
SWIDTH 545 0
DWIDTH 6 0
BBX 3 9 1 -1
BITMAP
80
40
20
20
20
20
20
40
80
ENDCHAR
STARTCHAR ASTERISK
ENCODING 42
SWIDTH 545 0
DWIDTH 6 0
BBX 5 5 0 2
BITMAP
20
A8
70
A8
20
ENDCHAR
STARTCHAR PLUS SIGN
ENCODING 43
SWIDTH 545 0
DWIDTH 6 0
BBX 5 5 0 1
BITMAP
20
20
F8
20
20
ENDCHAR
STARTCHAR COMMA
ENCODING 44
SWIDTH 545 0
DWIDTH 6 0
BBX 2 4 1 -2
BITMAP
C0
C0
40
80
ENDCHAR
STARTCHAR HYPHEN-MINUS
ENCODING 45
SWIDTH 545 0
DWIDTH 6 0
BBX 3 1 1 3
BITMAP
E0
ENDCHAR
STARTCHAR FULL STOP
ENCODING 46
SWIDTH 545 0
DWIDTH 6 0
BBX 2 2 2 0
BITMAP
C0
C0
ENDCHAR
STARTCHAR SOLIDUS
ENCODING 47
SWIDTH 545 0
DWIDTH 6 0
BBX 5 10 0 -2
BITMAP
08
08
10
10
20
20
40
40
80
80
ENDCHAR
STARTCHAR DIGIT ZERO
ENCODING 48
SWIDTH 545 0
DWIDTH 6 0
BBX 5 7 0 0
BITMAP
70
88
98
A8
C8
88
70
ENDCHAR
STARTCHAR DIGIT ONE
ENCODING 49
SWIDTH 545 0
DWIDTH 6 0
BBX 5 7 0 0
BITMAP
20
E0
20
20
20
20
F8
ENDCHAR
STARTCHAR DIGIT TWO
ENCODING 50
SWIDTH 545 0
DWIDTH 6 0
BBX 5 7 0 0
BITMAP
70
88
08
10
20
40
F8
ENDCHAR
STARTCHAR DIGIT THREE
ENCODING 51
SWIDTH 545 0
DWIDTH 6 0
BBX 5 7 0 0
BITMAP
70
88
08
30
08
88
70
ENDCHAR
STARTCHAR DIGIT FOUR
ENCODING 52
SWIDTH 545 0
DWIDTH 6 0
BBX 5 7 0 0
BITMAP
10
30
50
90
F8
10
38
ENDCHAR
STARTCHAR DIGIT FIVE
ENCODING 53
SWIDTH 545 0
DWIDTH 6 0
BBX 5 7 0 0
BITMAP
F8
80
F0
08
08
88
70
ENDCHAR
STARTCHAR DIGIT SIX
ENCODING 54
SWIDTH 545 0
DWIDTH 6 0
BBX 5 7 0 0
BITMAP
70
80
F0
88
88
88
70
ENDCHAR
STARTCHAR DIGIT SEVEN
ENCODING 55
SWIDTH 545 0
DWIDTH 6 0
BBX 5 7 0 0
BITMAP
F8
08
08
10
20
20
20
ENDCHAR
STARTCHAR DIGIT EIGHT
ENCODING 56
SWIDTH 545 0
DWIDTH 6 0
BBX 5 7 0 0
BITMAP
70
88
88
70
88
88
70
ENDCHAR
STARTCHAR DIGIT NINE
ENCODING 57
SWIDTH 545 0
DWIDTH 6 0
BBX 5 7 0 0
BITMAP
70
88
88
88
78
08
70
ENDCHAR
STARTCHAR COLON
ENCODING 58
SWIDTH 545 0
DWIDTH 6 0
BBX 2 5 2 0
BITMAP
C0
C0
00
C0
C0
ENDCHAR
STARTCHAR SEMICOLON
ENCODING 59
SWIDTH 545 0
DWIDTH 6 0
BBX 2 7 1 -2
BITMAP
C0
C0
00
C0
C0
40
80
ENDCHAR
STARTCHAR LESS-THAN SIGN
ENCODING 60
SWIDTH 545 0
DWIDTH 6 0
BBX 4 7 1 0
BITMAP
10
20
40
80
40
20
10
ENDCHAR
STARTCHAR EQUALS SIGN
ENCODING 61
SWIDTH 545 0
DWIDTH 6 0
BBX 5 3 0 2
BITMAP
F8
00
F8
ENDCHAR
STARTCHAR GREATER-THAN SIGN
ENCODING 62
SWIDTH 545 0
DWIDTH 6 0
BBX 4 7 1 0
BITMAP
80
40
20
10
20
40
80
ENDCHAR
STARTCHAR QUESTION MARK
ENCODING 63
SWIDTH 545 0
DWIDTH 6 0
BBX 5 7 0 0
BITMAP
70
88
08
10
20
00
20
ENDCHAR
STARTCHAR COMMERCIAL AT
ENCODING 64
SWIDTH 545 0
DWIDTH 6 0
BBX 5 7 0 0
BITMAP
70
88
B8
A8
B8
80
78
ENDCHAR
STARTCHAR LATIN CAPITAL LETTER A
ENCODING 65
SWIDTH 545 0
DWIDTH 6 0
BBX 5 7 0 0
BITMAP
20
50
50
88
F8
88
88
ENDCHAR
STARTCHAR LATIN CAPITAL LETTER B
ENCODING 66
SWIDTH 545 0
DWIDTH 6 0
BBX 5 7 0 0
BITMAP
F0
88
88
F0
88
88
F0
ENDCHAR
STARTCHAR LATIN CAPITAL LETTER C
ENCODING 67
SWIDTH 545 0
DWIDTH 6 0
BBX 5 7 0 0
BITMAP
70
88
80
80
80
88
70
ENDCHAR
STARTCHAR LATIN CAPITAL LETTER D
ENCODING 68
SWIDTH 545 0
DWIDTH 6 0
BBX 5 7 0 0
BITMAP
F0
88
88
88
88
88
F0
ENDCHAR
STARTCHAR LATIN CAPITAL LETTER E
ENCODING 69
SWIDTH 545 0
DWIDTH 6 0
BBX 5 7 0 0
BITMAP
F8
80
80
F0
80
80
F8
ENDCHAR
STARTCHAR LATIN CAPITAL LETTER F
ENCODING 70
SWIDTH 545 0
DWIDTH 6 0
BBX 5 7 0 0
BITMAP
F8
80
80
F0
80
80
80
ENDCHAR
STARTCHAR LATIN CAPITAL LETTER G
ENCODING 71
SWIDTH 545 0
DWIDTH 6 0
BBX 5 7 0 0
BITMAP
70
88
80
98
88
88
70
ENDCHAR
STARTCHAR LATIN CAPITAL LETTER H
ENCODING 72
SWIDTH 545 0
DWIDTH 6 0
BBX 5 7 0 0
BITMAP
88
88
88
F8
88
88
88
ENDCHAR
STARTCHAR LATIN CAPITAL LETTER I
ENCODING 73
SWIDTH 545 0
DWIDTH 6 0
BBX 5 7 0 0
BITMAP
F8
20
20
20
20
20
F8
ENDCHAR
STARTCHAR LATIN CAPITAL LETTER J
ENCODING 74
SWIDTH 545 0
DWIDTH 6 0
BBX 5 7 0 0
BITMAP
08
08
08
08
88
88
70
ENDCHAR
STARTCHAR LATIN CAPITAL LETTER K
ENCODING 75
SWIDTH 545 0
DWIDTH 6 0
BBX 5 7 0 0
BITMAP
88
90
A0
C0
A0
90
88
ENDCHAR
STARTCHAR LATIN CAPITAL LETTER L
ENCODING 76
SWIDTH 545 0
DWIDTH 6 0
BBX 5 7 0 0
BITMAP
80
80
80
80
80
80
F8
ENDCHAR
STARTCHAR LATIN CAPITAL LETTER M
ENCODING 77
SWIDTH 545 0
DWIDTH 6 0
BBX 5 7 0 0
BITMAP
88
D8
A8
A8
88
88
88
ENDCHAR
STARTCHAR LATIN CAPITAL LETTER N
ENCODING 78
SWIDTH 545 0
DWIDTH 6 0
BBX 5 7 0 0
BITMAP
88
C8
A8
98
88
88
88
ENDCHAR
STARTCHAR LATIN CAPITAL LETTER O
ENCODING 79
SWIDTH 545 0
DWIDTH 6 0
BBX 5 7 0 0
BITMAP
70
88
88
88
88
88
70
ENDCHAR
STARTCHAR LATIN CAPITAL LETTER P
ENCODING 80
SWIDTH 545 0
DWIDTH 6 0
BBX 5 7 0 0
BITMAP
F0
88
88
F0
80
80
80
ENDCHAR
STARTCHAR LATIN CAPITAL LETTER Q
ENCODING 81
SWIDTH 545 0
DWIDTH 6 0
BBX 5 8 0 -1
BITMAP
70
88
88
88
88
A8
70
08
ENDCHAR
STARTCHAR LATIN CAPITAL LETTER R
ENCODING 82
SWIDTH 545 0
DWIDTH 6 0
BBX 5 7 0 0
BITMAP
F0
88
88
F0
88
88
88
ENDCHAR
STARTCHAR LATIN CAPITAL LETTER S
ENCODING 83
SWIDTH 545 0
DWIDTH 6 0
BBX 5 7 0 0
BITMAP
70
88
80
70
08
88
70
ENDCHAR
STARTCHAR LATIN CAPITAL LETTER T
ENCODING 84
SWIDTH 545 0
DWIDTH 6 0
BBX 5 7 0 0
BITMAP
F8
20
20
20
20
20
20
ENDCHAR
STARTCHAR LATIN CAPITAL LETTER U
ENCODING 85
SWIDTH 545 0
DWIDTH 6 0
BBX 5 7 0 0
BITMAP
88
88
88
88
88
88
70
ENDCHAR
STARTCHAR LATIN CAPITAL LETTER V
ENCODING 86
SWIDTH 545 0
DWIDTH 6 0
BBX 5 7 0 0
BITMAP
88
88
88
50
50
20
20
ENDCHAR
STARTCHAR LATIN CAPITAL LETTER W
ENCODING 87
SWIDTH 545 0
DWIDTH 6 0
BBX 5 7 0 0
BITMAP
88
88
88
A8
A8
D8
88
ENDCHAR
STARTCHAR LATIN CAPITAL LETTER X
ENCODING 88
SWIDTH 545 0
DWIDTH 6 0
BBX 5 7 0 0
BITMAP
88
88
50
20
50
88
88
ENDCHAR
STARTCHAR LATIN CAPITAL LETTER Y
ENCODING 89
SWIDTH 545 0
DWIDTH 6 0
BBX 5 7 0 0
BITMAP
88
88
88
50
20
20
20
ENDCHAR
STARTCHAR LATIN CAPITAL LETTER Z
ENCODING 90
SWIDTH 545 0
DWIDTH 6 0
BBX 5 7 0 0
BITMAP
F8
08
10
20
40
80
F8
ENDCHAR
STARTCHAR LEFT SQUARE BRACKET
ENCODING 91
SWIDTH 545 0
DWIDTH 6 0
BBX 2 9 2 -1
BITMAP
C0
80
80
80
80
80
80
80
C0
ENDCHAR
STARTCHAR REVERSE SOLIDUS
ENCODING 92
SWIDTH 545 0
DWIDTH 6 0
BBX 5 10 1 -2
BITMAP
80
80
40
40
20
20
10
10
08
08
ENDCHAR
STARTCHAR RIGHT SQUARE BRACKET
ENCODING 93
SWIDTH 545 0
DWIDTH 6 0
BBX 2 9 1 -1
BITMAP
C0
40
40
40
40
40
40
40
C0
ENDCHAR
STARTCHAR CIRCUMFLEX ACCENT
ENCODING 94
SWIDTH 545 0
DWIDTH 6 0
BBX 5 3 0 4
BITMAP
20
50
88
ENDCHAR
STARTCHAR LOW LINE
ENCODING 95
SWIDTH 545 0
DWIDTH 6 0
BBX 6 1 0 -2
BITMAP
FC
ENDCHAR
STARTCHAR GRAVE ACCENT
ENCODING 96
SWIDTH 545 0
DWIDTH 6 0
BBX 2 2 1 6
BITMAP
80
40
ENDCHAR
STARTCHAR LATIN SMALL LETTER A
ENCODING 97
SWIDTH 545 0
DWIDTH 6 0
BBX 5 5 0 0
BITMAP
78
88
88
98
68
ENDCHAR
STARTCHAR LATIN SMALL LETTER B
ENCODING 98
SWIDTH 545 0
DWIDTH 6 0
BBX 5 7 0 0
BITMAP
80
80
F0
88
88
88
F0
ENDCHAR
STARTCHAR LATIN SMALL LETTER C
ENCODING 99
SWIDTH 545 0
DWIDTH 6 0
BBX 5 5 0 0
BITMAP
70
88
80
80
78
ENDCHAR
STARTCHAR LATIN SMALL LETTER D
ENCODING 100
SWIDTH 545 0
DWIDTH 6 0
BBX 5 7 0 0
BITMAP
08
08
78
88
88
88
78
ENDCHAR
STARTCHAR LATIN SMALL LETTER E
ENCODING 101
SWIDTH 545 0
DWIDTH 6 0
BBX 5 5 0 0
BITMAP
70
88
F8
80
78
ENDCHAR
STARTCHAR LATIN SMALL LETTER F
ENCODING 102
SWIDTH 545 0
DWIDTH 6 0
BBX 4 7 1 0
BITMAP
30
40
E0
40
40
40
40
ENDCHAR
STARTCHAR LATIN SMALL LETTER G
ENCODING 103
SWIDTH 545 0
DWIDTH 6 0
BBX 5 7 0 -2
BITMAP
78
88
88
88
78
08
70
ENDCHAR
STARTCHAR LATIN SMALL LETTER H
ENCODING 104
SWIDTH 545 0
DWIDTH 6 0
BBX 5 7 0 0
BITMAP
80
80
F0
88
88
88
88
ENDCHAR
STARTCHAR LATIN SMALL LETTER I
ENCODING 105
SWIDTH 545 0
DWIDTH 6 0
BBX 3 7 1 0
BITMAP
40
00
C0
40
40
40
E0
ENDCHAR
STARTCHAR LATIN SMALL LETTER J
ENCODING 106
SWIDTH 545 0
DWIDTH 6 0
BBX 3 9 0 -2
BITMAP
20
00
60
20
20
20
20
20
C0
ENDCHAR
STARTCHAR LATIN SMALL LETTER K
ENCODING 107
SWIDTH 545 0
DWIDTH 6 0
BBX 5 7 0 0
BITMAP
80
80
90
A0
E0
90
88
ENDCHAR
STARTCHAR LATIN SMALL LETTER L
ENCODING 108
SWIDTH 545 0
DWIDTH 6 0
BBX 3 7 1 0
BITMAP
C0
40
40
40
40
40
E0
ENDCHAR
STARTCHAR LATIN SMALL LETTER M
ENCODING 109
SWIDTH 545 0
DWIDTH 6 0
BBX 5 5 0 0
BITMAP
F0
A8
A8
A8
A8
ENDCHAR
STARTCHAR LATIN SMALL LETTER N
ENCODING 110
SWIDTH 545 0
DWIDTH 6 0
BBX 5 5 0 0
BITMAP
B0
C8
88
88
88
ENDCHAR
STARTCHAR LATIN SMALL LETTER O
ENCODING 111
SWIDTH 545 0
DWIDTH 6 0
BBX 5 5 0 0
BITMAP
70
88
88
88
70
ENDCHAR
STARTCHAR LATIN SMALL LETTER P
ENCODING 112
SWIDTH 545 0
DWIDTH 6 0
BBX 5 7 0 -2
BITMAP
F0
88
88
88
F0
80
80
ENDCHAR
STARTCHAR LATIN SMALL LETTER Q
ENCODING 113
SWIDTH 545 0
DWIDTH 6 0
BBX 5 7 0 -2
BITMAP
78
88
88
88
78
08
08
ENDCHAR
STARTCHAR LATIN SMALL LETTER R
ENCODING 114
SWIDTH 545 0
DWIDTH 6 0
BBX 5 5 0 0
BITMAP
B0
C8
80
80
80
ENDCHAR
STARTCHAR LATIN SMALL LETTER S
ENCODING 115
SWIDTH 545 0
DWIDTH 6 0
BBX 5 5 0 0
BITMAP
78
80
70
08
F0
ENDCHAR
STARTCHAR LATIN SMALL LETTER T
ENCODING 116
SWIDTH 545 0
DWIDTH 6 0
BBX 4 7 1 0
BITMAP
40
40
E0
40
40
40
30
ENDCHAR
STARTCHAR LATIN SMALL LETTER U
ENCODING 117
SWIDTH 545 0
DWIDTH 6 0
BBX 5 5 0 0
BITMAP
88
88
88
98
68
ENDCHAR
STARTCHAR LATIN SMALL LETTER V
ENCODING 118
SWIDTH 545 0
DWIDTH 6 0
BBX 5 5 0 0
BITMAP
88
88
50
50
20
ENDCHAR
STARTCHAR LATIN SMALL LETTER W
ENCODING 119
SWIDTH 545 0
DWIDTH 6 0
BBX 5 5 0 0
BITMAP
A8
A8
A8
A8
50
ENDCHAR
STARTCHAR LATIN SMALL LETTER X
ENCODING 120
SWIDTH 545 0
DWIDTH 6 0
BBX 5 5 0 0
BITMAP
88
50
20
50
88
ENDCHAR
STARTCHAR LATIN SMALL LETTER Y
ENCODING 121
SWIDTH 545 0
DWIDTH 6 0
BBX 5 7 0 -2
BITMAP
88
88
88
88
78
08
70
ENDCHAR
STARTCHAR LATIN SMALL LETTER Z
ENCODING 122
SWIDTH 545 0
DWIDTH 6 0
BBX 5 5 0 0
BITMAP
F8
10
20
40
F8
ENDCHAR
STARTCHAR LEFT CURLY BRACKET
ENCODING 123
SWIDTH 545 0
DWIDTH 6 0
BBX 6 11 0 -2
BITMAP
10
20
20
20
20
40
20
20
20
20
10
ENDCHAR
STARTCHAR VERTICAL LINE
ENCODING 124
SWIDTH 545 0
DWIDTH 6 0
BBX 1 9 2 -1
BITMAP
80
80
80
80
80
80
80
80
80
ENDCHAR
STARTCHAR RIGHT CURLY BRACKET
ENCODING 125
SWIDTH 545 0
DWIDTH 6 0
BBX 6 11 0 -2
BITMAP
40
20
20
20
20
10
20
20
20
20
40
ENDCHAR
STARTCHAR TILDE
ENCODING 126
SWIDTH 545 0
DWIDTH 6 0
BBX 5 2 0 3
BITMAP
68
B0
ENDCHAR
STARTCHAR <control>
ENCODING 127
SWIDTH 545 0
DWIDTH 6 0
BBX 0 0 0 0
BITMAP
ENDCHAR
STARTCHAR <control>
ENCODING 128
SWIDTH 545 0
DWIDTH 6 0
BBX 0 0 0 0
BITMAP
ENDCHAR
STARTCHAR <control>
ENCODING 129
SWIDTH 545 0
DWIDTH 6 0
BBX 0 0 0 0
BITMAP
ENDCHAR
STARTCHAR <control>
ENCODING 130
SWIDTH 545 0
DWIDTH 6 0
BBX 2 3 0 -1
BITMAP
40
40
80
ENDCHAR
STARTCHAR <control>
ENCODING 131
SWIDTH 545 0
DWIDTH 6 0
BBX 6 11 0 -2
BITMAP
18
20
20
20
70
20
20
20
20
20
C0
ENDCHAR
STARTCHAR <control>
ENCODING 132
SWIDTH 545 0
DWIDTH 6 0
BBX 4 3 0 -1
BITMAP
50
50
A0
ENDCHAR
STARTCHAR <control>
ENCODING 133
SWIDTH 545 0
DWIDTH 6 0
BBX 5 1 0 0
BITMAP
A8
ENDCHAR
STARTCHAR <control>
ENCODING 134
SWIDTH 545 0
DWIDTH 6 0
BBX 3 5 1 2
BITMAP
40
E0
40
40
40
ENDCHAR
STARTCHAR <control>
ENCODING 135
SWIDTH 545 0
DWIDTH 6 0
BBX 3 5 1 2
BITMAP
40
E0
40
E0
40
ENDCHAR
STARTCHAR <control>
ENCODING 136
SWIDTH 545 0
DWIDTH 6 0
BBX 3 2 1 6
BITMAP
40
A0
ENDCHAR
STARTCHAR <control>
ENCODING 137
SWIDTH 545 0
DWIDTH 6 0
BBX 6 8 0 0
BITMAP
7C
A8
B0
60
68
D4
54
28
ENDCHAR
STARTCHAR <control>
ENCODING 138
SWIDTH 545 0
DWIDTH 6 0
BBX 5 9 0 0
BITMAP
50
20
70
88
80
70
08
88
70
ENDCHAR
STARTCHAR <control>
ENCODING 139
SWIDTH 545 0
DWIDTH 6 0
BBX 2 4 0 0
BITMAP
40
80
80
40
ENDCHAR
STARTCHAR <control>
ENCODING 140
SWIDTH 545 0
DWIDTH 6 0
BBX 5 7 0 0
BITMAP
78
A0
A0
B0
A0
A0
78
ENDCHAR
STARTCHAR <control>
ENCODING 141
SWIDTH 545 0
DWIDTH 6 0
BBX 0 0 0 0
BITMAP
ENDCHAR
STARTCHAR <control>
ENCODING 142
SWIDTH 545 0
DWIDTH 6 0
BBX 0 0 0 0
BITMAP
ENDCHAR
STARTCHAR <control>
ENCODING 143
SWIDTH 545 0
DWIDTH 6 0
BBX 0 0 0 0
BITMAP
ENDCHAR
STARTCHAR <control>
ENCODING 144
SWIDTH 545 0
DWIDTH 6 0
BBX 0 0 0 0
BITMAP
ENDCHAR
STARTCHAR <control>
ENCODING 145
SWIDTH 545 0
DWIDTH 6 0
BBX 2 3 2 4
BITMAP
40
80
80
ENDCHAR
STARTCHAR <control>
ENCODING 146
SWIDTH 545 0
DWIDTH 6 0
BBX 2 3 2 4
BITMAP
40
40
80
ENDCHAR
STARTCHAR <control>
ENCODING 147
SWIDTH 545 0
DWIDTH 6 0
BBX 4 3 1 4
BITMAP
50
A0
A0
ENDCHAR
STARTCHAR <control>
ENCODING 148
SWIDTH 545 0
DWIDTH 6 0
BBX 4 3 1 4
BITMAP
50
50
A0
ENDCHAR
STARTCHAR <control>
ENCODING 149
SWIDTH 545 0
DWIDTH 6 0
BBX 5 5 0 1
BITMAP
70
F8
F8
F8
70
ENDCHAR
STARTCHAR <control>
ENCODING 150
SWIDTH 545 0
DWIDTH 6 0
BBX 3 1 1 3
BITMAP
E0
ENDCHAR
STARTCHAR <control>
ENCODING 151
SWIDTH 545 0
DWIDTH 6 0
BBX 6 1 0 3
BITMAP
FC
ENDCHAR
STARTCHAR <control>
ENCODING 152
SWIDTH 545 0
DWIDTH 6 0
BBX 5 2 0 6
BITMAP
68
B0
ENDCHAR
STARTCHAR <control>
ENCODING 153
SWIDTH 545 0
DWIDTH 6 0
BBX 6 3 0 4
BITMAP
F4
5C
5C
ENDCHAR
STARTCHAR <control>
ENCODING 154
SWIDTH 545 0
DWIDTH 6 0
BBX 5 8 0 0
BITMAP
50
20
00
78
80
70
08
F0
ENDCHAR
STARTCHAR <control>
ENCODING 155
SWIDTH 545 0
DWIDTH 6 0
BBX 2 4 0 0
BITMAP
80
40
40
80
ENDCHAR
STARTCHAR <control>
ENCODING 156
SWIDTH 545 0
DWIDTH 6 0
BBX 5 5 0 0
BITMAP
50
A8
B8
A0
58
ENDCHAR
STARTCHAR <control>
ENCODING 157
SWIDTH 545 0
DWIDTH 6 0
BBX 0 0 0 0
BITMAP
ENDCHAR
STARTCHAR <control>
ENCODING 158
SWIDTH 545 0
DWIDTH 6 0
BBX 0 0 0 0
BITMAP
ENDCHAR
STARTCHAR <control>
ENCODING 159
SWIDTH 545 0
DWIDTH 6 0
BBX 5 9 0 0
BITMAP
50
00
88
88
88
50
20
20
20
ENDCHAR
STARTCHAR NO-BREAK SPACE
ENCODING 160
SWIDTH 545 0
DWIDTH 6 0
BBX 0 0 0 0
BITMAP
ENDCHAR
STARTCHAR INVERTED EXCLAMATION MARK
ENCODING 161
SWIDTH 545 0
DWIDTH 6 0
BBX 1 7 3 0
BITMAP
80
00
80
80
80
80
80
ENDCHAR
STARTCHAR CENT SIGN
ENCODING 162
SWIDTH 545 0
DWIDTH 6 0
BBX 5 7 0 -1
BITMAP
20
70
A8
A0
A0
78
20
ENDCHAR
STARTCHAR POUND SIGN
ENCODING 163
SWIDTH 545 0
DWIDTH 6 0
BBX 5 8 0 0
BITMAP
60
90
80
E0
80
80
88
F0
ENDCHAR
STARTCHAR CURRENCY SIGN
ENCODING 164
SWIDTH 545 0
DWIDTH 6 0
BBX 5 5 0 0
BITMAP
88
70
50
70
88
ENDCHAR
STARTCHAR YEN SIGN
ENCODING 165
SWIDTH 545 0
DWIDTH 6 0
BBX 5 7 0 0
BITMAP
88
50
F8
20
F8
20
20
ENDCHAR
STARTCHAR BROKEN BAR
ENCODING 166
SWIDTH 545 0
DWIDTH 6 0
BBX 1 9 2 -1
BITMAP
80
80
80
80
00
80
80
80
80
ENDCHAR
STARTCHAR SECTION SIGN
ENCODING 167
SWIDTH 545 0
DWIDTH 6 0
BBX 5 10 0 -1
BITMAP
70
88
48
A0
90
48
28
90
88
70
ENDCHAR
STARTCHAR DIAERESIS
ENCODING 168
SWIDTH 545 0
DWIDTH 6 0
BBX 3 1 1 6
BITMAP
A0
ENDCHAR
STARTCHAR COPYRIGHT SIGN
ENCODING 169
SWIDTH 545 0
DWIDTH 6 0
BBX 5 7 0 0
BITMAP
E0
10
68
88
68
10
E0
ENDCHAR
STARTCHAR FEMININE ORDINAL INDICATOR
ENCODING 170
SWIDTH 545 0
DWIDTH 6 0
BBX 4 6 1 3
BITMAP
70
90
90
70
00
F0
ENDCHAR
STARTCHAR LEFT-POINTING DOUBLE ANGLE QUOTATION MARK
ENCODING 171
SWIDTH 545 0
DWIDTH 6 0
BBX 5 4 0 0
BITMAP
48
90
90
48
ENDCHAR
STARTCHAR NOT SIGN
ENCODING 172
SWIDTH 545 0
DWIDTH 6 0
BBX 5 3 0 1
BITMAP
F8
08
08
ENDCHAR
STARTCHAR SOFT HYPHEN
ENCODING 173
SWIDTH 545 0
DWIDTH 6 0
BBX 5 1 0 3
BITMAP
F8
ENDCHAR
STARTCHAR REGISTERED SIGN
ENCODING 174
SWIDTH 545 0
DWIDTH 6 0
BBX 5 6 0 1
BITMAP
E0
10
C8
A8
C8
B0
ENDCHAR
STARTCHAR MACRON
ENCODING 175
SWIDTH 545 0
DWIDTH 6 0
BBX 3 1 1 6
BITMAP
E0
ENDCHAR
STARTCHAR DEGREE SIGN
ENCODING 176
SWIDTH 545 0
DWIDTH 6 0
BBX 4 4 1 4
BITMAP
60
90
90
60
ENDCHAR
STARTCHAR PLUS-MINUS SIGN
ENCODING 177
SWIDTH 545 0
DWIDTH 6 0
BBX 5 6 0 0
BITMAP
20
20
F8
20
20
F8
ENDCHAR
STARTCHAR SUPERSCRIPT TWO
ENCODING 178
SWIDTH 545 0
DWIDTH 6 0
BBX 3 4 1 5
BITMAP
C0
20
40
E0
ENDCHAR
STARTCHAR SUPERSCRIPT THREE
ENCODING 179
SWIDTH 545 0
DWIDTH 6 0
BBX 3 5 1 4
BITMAP
C0
20
60
20
C0
ENDCHAR
STARTCHAR ACUTE ACCENT
ENCODING 180
SWIDTH 545 0
DWIDTH 6 0
BBX 3 2 2 6
BITMAP
60
C0
ENDCHAR
STARTCHAR MICRO SIGN
ENCODING 181
SWIDTH 545 0
DWIDTH 6 0
BBX 5 7 0 -2
BITMAP
90
90
90
90
E8
80
80
ENDCHAR
STARTCHAR PILCROW SIGN
ENCODING 182
SWIDTH 545 0
DWIDTH 6 0
BBX 5 8 0 0
BITMAP
78
A8
A8
A8
78
28
28
28
ENDCHAR
STARTCHAR MIDDLE DOT
ENCODING 183
SWIDTH 545 0
DWIDTH 6 0
BBX 2 2 2 2
BITMAP
C0
C0
ENDCHAR
STARTCHAR CEDILLA
ENCODING 184
SWIDTH 545 0
DWIDTH 6 0
BBX 3 3 1 -2
BITMAP
E0
60
C0
ENDCHAR
STARTCHAR SUPERSCRIPT ONE
ENCODING 185
SWIDTH 545 0
DWIDTH 6 0
BBX 3 4 1 5
BITMAP
C0
40
40
E0
ENDCHAR
STARTCHAR MASCULINE ORDINAL INDICATOR
ENCODING 186
SWIDTH 545 0
DWIDTH 6 0
BBX 4 6 1 3
BITMAP
60
90
90
60
00
F0
ENDCHAR
STARTCHAR RIGHT-POINTING DOUBLE ANGLE QUOTATION MARK
ENCODING 187
SWIDTH 545 0
DWIDTH 6 0
BBX 5 4 0 0
BITMAP
90
48
48
90
ENDCHAR
STARTCHAR VULGAR FRACTION ONE QUARTER
ENCODING 188
SWIDTH 545 0
DWIDTH 6 0
BBX 6 9 0 0
BITMAP
C0
40
44
E8
10
28
58
B8
08
ENDCHAR
STARTCHAR VULGAR FRACTION ONE HALF
ENCODING 189
SWIDTH 545 0
DWIDTH 6 0
BBX 6 9 0 0
BITMAP
C0
40
44
E8
10
38
44
88
1C
ENDCHAR
STARTCHAR VULGAR FRACTION THREE QUARTERS
ENCODING 190
SWIDTH 545 0
DWIDTH 6 0
BBX 6 9 0 0
BITMAP
C0
20
64
28
D0
28
58
B8
08
ENDCHAR
STARTCHAR INVERTED QUESTION MARK
ENCODING 191
SWIDTH 545 0
DWIDTH 6 0
BBX 5 7 0 0
BITMAP
20
00
20
40
80
88
70
ENDCHAR
STARTCHAR LATIN CAPITAL LETTER A WITH GRAVE
ENCODING 192
SWIDTH 545 0
DWIDTH 6 0
BBX 5 9 0 0
BITMAP
40
20
20
50
50
88
F8
88
88
ENDCHAR
STARTCHAR LATIN CAPITAL LETTER A WITH ACUTE
ENCODING 193
SWIDTH 545 0
DWIDTH 6 0
BBX 5 9 0 0
BITMAP
10
20
20
50
50
88
F8
88
88
ENDCHAR
STARTCHAR LATIN CAPITAL LETTER A WITH CIRCUMFLEX
ENCODING 194
SWIDTH 545 0
DWIDTH 6 0
BBX 5 9 0 0
BITMAP
20
50
00
20
50
88
F8
88
88
ENDCHAR
STARTCHAR LATIN CAPITAL LETTER A WITH TILDE
ENCODING 195
SWIDTH 545 0
DWIDTH 6 0
BBX 5 9 0 0
BITMAP
68
B0
20
50
50
88
F8
88
88
ENDCHAR
STARTCHAR LATIN CAPITAL LETTER A WITH DIAERESIS
ENCODING 196
SWIDTH 545 0
DWIDTH 6 0
BBX 5 9 0 0
BITMAP
50
00
20
50
50
88
F8
88
88
ENDCHAR
STARTCHAR LATIN CAPITAL LETTER A WITH RING ABOVE
ENCODING 197
SWIDTH 545 0
DWIDTH 6 0
BBX 5 9 0 0
BITMAP
20
50
20
50
88
88
F8
88
88
ENDCHAR
STARTCHAR LATIN CAPITAL LETTER AE
ENCODING 198
SWIDTH 545 0
DWIDTH 6 0
BBX 5 7 0 0
BITMAP
78
A0
A0
F0
A0
A0
B8
ENDCHAR
STARTCHAR LATIN CAPITAL LETTER C WITH CEDILLA
ENCODING 199
SWIDTH 545 0
DWIDTH 6 0
BBX 5 9 0 -2
BITMAP
70
88
80
80
80
88
70
20
40
ENDCHAR
STARTCHAR LATIN CAPITAL LETTER E WITH GRAVE
ENCODING 200
SWIDTH 545 0
DWIDTH 6 0
BBX 5 9 0 0
BITMAP
40
20
F8
80
80
F0
80
80
F8
ENDCHAR
STARTCHAR LATIN CAPITAL LETTER E WITH ACUTE
ENCODING 201
SWIDTH 545 0
DWIDTH 6 0
BBX 5 9 0 0
BITMAP
10
20
F8
80
80
F0
80
80
F8
ENDCHAR
STARTCHAR LATIN CAPITAL LETTER E WITH CIRCUMFLEX
ENCODING 202
SWIDTH 545 0
DWIDTH 6 0
BBX 5 9 0 0
BITMAP
20
50
F8
80
80
F0
80
80
F8
ENDCHAR
STARTCHAR LATIN CAPITAL LETTER E WITH DIAERESIS
ENCODING 203
SWIDTH 545 0
DWIDTH 6 0
BBX 5 9 0 0
BITMAP
50
00
F8
80
80
F0
80
80
F8
ENDCHAR
STARTCHAR LATIN CAPITAL LETTER I WITH GRAVE
ENCODING 204
SWIDTH 545 0
DWIDTH 6 0
BBX 5 9 0 0
BITMAP
40
20
F8
20
20
20
20
20
F8
ENDCHAR
STARTCHAR LATIN CAPITAL LETTER I WITH ACUTE
ENCODING 205
SWIDTH 545 0
DWIDTH 6 0
BBX 5 9 0 0
BITMAP
10
20
F8
20
20
20
20
20
F8
ENDCHAR
STARTCHAR LATIN CAPITAL LETTER I WITH CIRCUMFLEX
ENCODING 206
SWIDTH 545 0
DWIDTH 6 0
BBX 5 9 0 0
BITMAP
20
50
00
F8
20
20
20
20
F8
ENDCHAR
STARTCHAR LATIN CAPITAL LETTER I WITH DIAERESIS
ENCODING 207
SWIDTH 545 0
DWIDTH 6 0
BBX 5 9 0 0
BITMAP
50
00
F8
20
20
20
20
20
F8
ENDCHAR
STARTCHAR LATIN CAPITAL LETTER ETH
ENCODING 208
SWIDTH 545 0
DWIDTH 6 0
BBX 5 7 0 0
BITMAP
70
48
48
E8
48
48
70
ENDCHAR
STARTCHAR LATIN CAPITAL LETTER N WITH TILDE
ENCODING 209
SWIDTH 545 0
DWIDTH 6 0
BBX 5 9 0 0
BITMAP
68
B0
88
C8
A8
98
88
88
88
ENDCHAR
STARTCHAR LATIN CAPITAL LETTER O WITH GRAVE
ENCODING 210
SWIDTH 545 0
DWIDTH 6 0
BBX 5 9 0 0
BITMAP
40
20
70
88
88
88
88
88
70
ENDCHAR
STARTCHAR LATIN CAPITAL LETTER O WITH ACUTE
ENCODING 211
SWIDTH 545 0
DWIDTH 6 0
BBX 5 9 0 0
BITMAP
10
20
70
88
88
88
88
88
70
ENDCHAR
STARTCHAR LATIN CAPITAL LETTER O WITH CIRCUMFLEX
ENCODING 212
SWIDTH 545 0
DWIDTH 6 0
BBX 5 9 0 0
BITMAP
20
50
00
70
88
88
88
88
70
ENDCHAR
STARTCHAR LATIN CAPITAL LETTER O WITH TILDE
ENCODING 213
SWIDTH 545 0
DWIDTH 6 0
BBX 5 9 0 0
BITMAP
68
B0
70
88
88
88
88
88
70
ENDCHAR
STARTCHAR LATIN CAPITAL LETTER O WITH DIAERESIS
ENCODING 214
SWIDTH 545 0
DWIDTH 6 0
BBX 5 9 0 0
BITMAP
50
00
70
88
88
88
88
88
70
ENDCHAR
STARTCHAR MULTIPLICATION SIGN
ENCODING 215
SWIDTH 545 0
DWIDTH 6 0
BBX 5 5 0 1
BITMAP
88
50
20
50
88
ENDCHAR
STARTCHAR LATIN CAPITAL LETTER O WITH STROKE
ENCODING 216
SWIDTH 545 0
DWIDTH 6 0
BBX 5 7 0 0
BITMAP
70
88
98
A8
C8
88
70
ENDCHAR
STARTCHAR LATIN CAPITAL LETTER U WITH GRAVE
ENCODING 217
SWIDTH 545 0
DWIDTH 6 0
BBX 5 9 0 0
BITMAP
40
20
88
88
88
88
88
88
70
ENDCHAR
STARTCHAR LATIN CAPITAL LETTER U WITH ACUTE
ENCODING 218
SWIDTH 545 0
DWIDTH 6 0
BBX 5 9 0 0
BITMAP
10
20
88
88
88
88
88
88
70
ENDCHAR
STARTCHAR LATIN CAPITAL LETTER U WITH CIRCUMFLEX
ENCODING 219
SWIDTH 545 0
DWIDTH 6 0
BBX 5 9 0 0
BITMAP
20
50
00
88
88
88
88
88
70
ENDCHAR
STARTCHAR LATIN CAPITAL LETTER U WITH DIAERESIS
ENCODING 220
SWIDTH 545 0
DWIDTH 6 0
BBX 5 9 0 0
BITMAP
50
00
88
88
88
88
88
88
70
ENDCHAR
STARTCHAR LATIN CAPITAL LETTER Y WITH ACUTE
ENCODING 221
SWIDTH 545 0
DWIDTH 6 0
BBX 5 9 0 0
BITMAP
10
20
88
88
88
50
20
20
20
ENDCHAR
STARTCHAR LATIN CAPITAL LETTER THORN
ENCODING 222
SWIDTH 545 0
DWIDTH 6 0
BBX 5 7 0 0
BITMAP
80
F0
88
88
F0
80
80
ENDCHAR
STARTCHAR LATIN SMALL LETTER SHARP S
ENCODING 223
SWIDTH 545 0
DWIDTH 6 0
BBX 5 9 0 -1
BITMAP
30
48
88
90
90
88
88
B0
80
ENDCHAR
STARTCHAR LATIN SMALL LETTER A WITH GRAVE
ENCODING 224
SWIDTH 545 0
DWIDTH 6 0
BBX 5 8 0 0
BITMAP
20
10
00
78
88
88
98
68
ENDCHAR
STARTCHAR LATIN SMALL LETTER A WITH ACUTE
ENCODING 225
SWIDTH 545 0
DWIDTH 6 0
BBX 5 8 0 0
BITMAP
10
20
00
78
88
88
98
68
ENDCHAR
STARTCHAR LATIN SMALL LETTER A WITH CIRCUMFLEX
ENCODING 226
SWIDTH 545 0
DWIDTH 6 0
BBX 5 8 0 0
BITMAP
20
50
00
78
88
88
98
68
ENDCHAR
STARTCHAR LATIN SMALL LETTER A WITH TILDE
ENCODING 227
SWIDTH 545 0
DWIDTH 6 0
BBX 5 8 0 0
BITMAP
68
B0
00
78
88
88
98
68
ENDCHAR
STARTCHAR LATIN SMALL LETTER A WITH DIAERESIS
ENCODING 228
SWIDTH 545 0
DWIDTH 6 0
BBX 5 7 0 0
BITMAP
50
00
78
88
88
98
68
ENDCHAR
STARTCHAR LATIN SMALL LETTER A WITH RING ABOVE
ENCODING 229
SWIDTH 545 0
DWIDTH 6 0
BBX 5 8 0 0
BITMAP
20
50
20
78
88
88
98
68
ENDCHAR
STARTCHAR LATIN SMALL LETTER AE
ENCODING 230
SWIDTH 545 0
DWIDTH 6 0
BBX 5 5 0 0
BITMAP
70
A8
B8
A0
78
ENDCHAR
STARTCHAR LATIN SMALL LETTER C WITH CEDILLA
ENCODING 231
SWIDTH 545 0
DWIDTH 6 0
BBX 5 7 0 -2
BITMAP
70
88
80
80
78
20
40
ENDCHAR
STARTCHAR LATIN SMALL LETTER E WITH GRAVE
ENCODING 232
SWIDTH 545 0
DWIDTH 6 0
BBX 5 8 0 0
BITMAP
40
20
00
70
88
F8
80
78
ENDCHAR
STARTCHAR LATIN SMALL LETTER E WITH ACUTE
ENCODING 233
SWIDTH 545 0
DWIDTH 6 0
BBX 5 8 0 0
BITMAP
10
20
00
70
88
F8
80
78
ENDCHAR
STARTCHAR LATIN SMALL LETTER E WITH CIRCUMFLEX
ENCODING 234
SWIDTH 545 0
DWIDTH 6 0
BBX 5 8 0 0
BITMAP
20
50
00
70
88
F8
80
78
ENDCHAR
STARTCHAR LATIN SMALL LETTER E WITH DIAERESIS
ENCODING 235
SWIDTH 545 0
DWIDTH 6 0
BBX 5 7 0 0
BITMAP
50
00
70
88
F8
80
78
ENDCHAR
STARTCHAR LATIN SMALL LETTER I WITH GRAVE
ENCODING 236
SWIDTH 545 0
DWIDTH 6 0
BBX 3 8 1 0
BITMAP
80
40
00
C0
40
40
40
E0
ENDCHAR
STARTCHAR LATIN SMALL LETTER I WITH ACUTE
ENCODING 237
SWIDTH 545 0
DWIDTH 6 0
BBX 3 8 1 0
BITMAP
20
40
00
C0
40
40
40
E0
ENDCHAR
STARTCHAR LATIN SMALL LETTER I WITH CIRCUMFLEX
ENCODING 238
SWIDTH 545 0
DWIDTH 6 0
BBX 3 8 1 0
BITMAP
40
A0
00
C0
40
40
40
E0
ENDCHAR
STARTCHAR LATIN SMALL LETTER I WITH DIAERESIS
ENCODING 239
SWIDTH 545 0
DWIDTH 6 0
BBX 3 7 1 0
BITMAP
A0
00
C0
40
40
40
E0
ENDCHAR
STARTCHAR LATIN SMALL LETTER ETH
ENCODING 240
SWIDTH 545 0
DWIDTH 6 0
BBX 5 8 0 0
BITMAP
60
60
10
78
88
88
88
70
ENDCHAR
STARTCHAR LATIN SMALL LETTER N WITH TILDE
ENCODING 241
SWIDTH 545 0
DWIDTH 6 0
BBX 5 8 0 0
BITMAP
68
B0
00
B0
C8
88
88
88
ENDCHAR
STARTCHAR LATIN SMALL LETTER O WITH GRAVE
ENCODING 242
SWIDTH 545 0
DWIDTH 6 0
BBX 5 8 0 0
BITMAP
40
20
00
70
88
88
88
70
ENDCHAR
STARTCHAR LATIN SMALL LETTER O WITH ACUTE
ENCODING 243
SWIDTH 545 0
DWIDTH 6 0
BBX 5 8 0 0
BITMAP
10
20
00
70
88
88
88
70
ENDCHAR
STARTCHAR LATIN SMALL LETTER O WITH CIRCUMFLEX
ENCODING 244
SWIDTH 545 0
DWIDTH 6 0
BBX 5 8 0 0
BITMAP
20
50
00
70
88
88
88
70
ENDCHAR
STARTCHAR LATIN SMALL LETTER O WITH TILDE
ENCODING 245
SWIDTH 545 0
DWIDTH 6 0
BBX 5 8 0 0
BITMAP
68
B0
00
70
88
88
88
70
ENDCHAR
STARTCHAR LATIN SMALL LETTER O WITH DIAERESIS
ENCODING 246
SWIDTH 545 0
DWIDTH 6 0
BBX 5 7 0 0
BITMAP
50
00
70
88
88
88
70
ENDCHAR
STARTCHAR DIVISION SIGN
ENCODING 247
SWIDTH 545 0
DWIDTH 6 0
BBX 5 5 0 1
BITMAP
20
00
F8
00
20
ENDCHAR
STARTCHAR LATIN SMALL LETTER O WITH STROKE
ENCODING 248
SWIDTH 545 0
DWIDTH 6 0
BBX 5 5 0 0
BITMAP
70
98
A8
C8
70
ENDCHAR
STARTCHAR LATIN SMALL LETTER U WITH GRAVE
ENCODING 249
SWIDTH 545 0
DWIDTH 6 0
BBX 5 8 0 0
BITMAP
40
20
00
88
88
88
98
68
ENDCHAR
STARTCHAR LATIN SMALL LETTER U WITH ACUTE
ENCODING 250
SWIDTH 545 0
DWIDTH 6 0
BBX 5 8 0 0
BITMAP
10
20
00
88
88
88
98
68
ENDCHAR
STARTCHAR LATIN SMALL LETTER U WITH CIRCUMFLEX
ENCODING 251
SWIDTH 545 0
DWIDTH 6 0
BBX 5 8 0 0
BITMAP
20
50
00
88
88
88
98
68
ENDCHAR
STARTCHAR LATIN SMALL LETTER U WITH DIAERESIS
ENCODING 252
SWIDTH 545 0
DWIDTH 6 0
BBX 5 7 0 0
BITMAP
50
00
88
88
88
98
68
ENDCHAR
STARTCHAR LATIN SMALL LETTER Y WITH ACUTE
ENCODING 253
SWIDTH 545 0
DWIDTH 6 0
BBX 5 10 0 -2
BITMAP
10
20
00
88
88
88
88
78
08
70
ENDCHAR
STARTCHAR LATIN SMALL LETTER THORN
ENCODING 254
SWIDTH 545 0
DWIDTH 6 0
BBX 5 9 0 -2
BITMAP
80
80
F0
88
88
88
F0
80
80
ENDCHAR
STARTCHAR LATIN SMALL LETTER Y WITH DIAERESIS
ENCODING 255
SWIDTH 545 0
DWIDTH 6 0
BBX 5 9 0 -2
BITMAP
50
00
88
88
88
88
78
08
70
ENDCHAR
STARTCHAR BOX DRAWINGS LIGHT VERTICAL
ENCODING 9474
SWIDTH 272 0
DWIDTH 3 0
BBX 1 12 2 -3
BITMAP
80
80
80
80
80
80
80
80
80
80
80
80
ENDCHAR
STARTCHAR BOX DRAWINGS HEAVY VERTICAL
ENCODING 9475
SWIDTH 363 0
DWIDTH 4 0
BBX 2 12 2 -3
BITMAP
C0
C0
C0
C0
C0
C0
C0
C0
C0
C0
C0
C0
ENDCHAR
STARTCHAR char9608
ENCODING 9608
SWIDTH 545 0
DWIDTH 6 0
BBX 6 12 0 -3
BITMAP
FC
FC
FC
FC
FC
FC
FC
FC
FC
FC
FC
FC
ENDCHAR
STARTCHAR QUADRANT LOWER LEFT
ENCODING 9622
SWIDTH 545 0
DWIDTH 6 0
BBX 3 3 0 0
BITMAP
E0
E0
E0
ENDCHAR
STARTCHAR QUADRANT LOWER RIGHT
ENCODING 9623
SWIDTH 545 0
DWIDTH 6 0
BBX 3 3 3 0
BITMAP
E0
E0
E0
ENDCHAR
STARTCHAR QUADRANT UPPER LEFT
ENCODING 9624
SWIDTH 545 0
DWIDTH 6 0
BBX 3 3 0 3
BITMAP
E0
E0
E0
ENDCHAR
STARTCHAR QUADRANT UPPER LEFT AND LOWER LEFT AND LOWER RIGHT
ENCODING 9625
SWIDTH 545 0
DWIDTH 6 0
BBX 6 6 0 0
BITMAP
E0
E0
E0
FC
FC
FC
ENDCHAR
STARTCHAR QUADRANT UPPER LEFT AND LOWER RIGHT
ENCODING 9626
SWIDTH 545 0
DWIDTH 6 0
BBX 6 6 0 0
BITMAP
E0
E0
E0
1C
1C
1C
ENDCHAR
STARTCHAR QUADRANT UPPER LEFT AND UPPER RIGHT AND LOWER LEFT
ENCODING 9627
SWIDTH 545 0
DWIDTH 6 0
BBX 6 6 0 0
BITMAP
FC
FC
FC
E0
E0
E0
ENDCHAR
STARTCHAR QUADRANT UPPER LEFT AND UPPER RIGHT AND LOWER RIGHT
ENCODING 9628
SWIDTH 545 0
DWIDTH 6 0
BBX 6 6 0 0
BITMAP
FC
FC
FC
1C
1C
1C
ENDCHAR
STARTCHAR QUADRANT UPPER RIGHT
ENCODING 9629
SWIDTH 545 0
DWIDTH 6 0
BBX 3 3 3 3
BITMAP
E0
E0
E0
ENDCHAR
STARTCHAR QUADRANT UPPER RIGHT AND LOWER LEFT
ENCODING 9630
SWIDTH 545 0
DWIDTH 6 0
BBX 6 6 0 0
BITMAP
1C
1C
1C
E0
E0
E0
ENDCHAR
STARTCHAR QUADRANT UPPER RIGHT AND LOWER LEFT AND LOWER RIGHT
ENCODING 9631
SWIDTH 545 0
DWIDTH 6 0
BBX 6 6 0 0
BITMAP
1C
1C
1C
FC
FC
FC
ENDCHAR
STARTCHAR BLACK SQUARE
ENCODING 9632
SWIDTH 545 0
DWIDTH 6 0
BBX 6 6 0 0
BITMAP
FC
FC
FC
FC
FC
FC
ENDCHAR
STARTCHAR WHITE SQUARE
ENCODING 9633
SWIDTH 545 0
DWIDTH 6 0
BBX 6 6 0 0
BITMAP
FC
84
84
84
84
FC
ENDCHAR
STARTCHAR WHITE SQUARE WITH ROUNDED CORNERS
ENCODING 9634
SWIDTH 545 0
DWIDTH 6 0
BBX 6 6 0 0
BITMAP
78
84
84
84
84
78
ENDCHAR
STARTCHAR WHITE SQUARE CONTAINING BLACK SMALL SQUARE
ENCODING 9635
SWIDTH 545 0
DWIDTH 6 0
BBX 5 5 0 0
BITMAP
F8
88
A8
88
F8
ENDCHAR
STARTCHAR SQUARE WITH HORIZONTAL FILL
ENCODING 9636
SWIDTH 545 0
DWIDTH 6 0
BBX 5 5 0 0
BITMAP
F8
88
F8
88
F8
ENDCHAR
STARTCHAR SQUARE WITH VERTICAL FILL
ENCODING 9637
SWIDTH 545 0
DWIDTH 6 0
BBX 5 5 0 0
BITMAP
F8
A8
A8
A8
F8
ENDCHAR
STARTCHAR SQUARE WITH ORTHOGONAL CROSSHATCH FILL
ENCODING 9638
SWIDTH 545 0
DWIDTH 6 0
BBX 5 5 0 0
BITMAP
F8
A8
F8
A8
F8
ENDCHAR
STARTCHAR SQUARE WITH UPPER LEFT TO LOWER RIGHT FILL
ENCODING 9639
SWIDTH 545 0
DWIDTH 6 0
BBX 5 5 0 0
BITMAP
F8
C8
A8
98
F8
ENDCHAR
STARTCHAR SQUARE WITH UPPER RIGHT TO LOWER LEFT FILL
ENCODING 9640
SWIDTH 545 0
DWIDTH 6 0
BBX 5 5 0 0
BITMAP
F8
98
A8
C8
F8
ENDCHAR
STARTCHAR SQUARE WITH DIAGONAL CROSSHATCH FILL
ENCODING 9641
SWIDTH 545 0
DWIDTH 6 0
BBX 5 5 0 0
BITMAP
F8
A8
D8
A8
F8
ENDCHAR
STARTCHAR BLACK SMALL SQUARE
ENCODING 9642
SWIDTH 545 0
DWIDTH 6 0
BBX 5 5 0 0
BITMAP
F8
F8
F8
F8
F8
ENDCHAR
STARTCHAR WHITE SMALL SQUARE
ENCODING 9643
SWIDTH 545 0
DWIDTH 6 0
BBX 5 5 0 0
BITMAP
F8
88
88
88
F8
ENDCHAR
STARTCHAR BLACK RECTANGLE
ENCODING 9644
SWIDTH 545 0
DWIDTH 6 0
BBX 5 3 0 0
BITMAP
F8
F8
F8
ENDCHAR
STARTCHAR WHITE RECTANGLE
ENCODING 9645
SWIDTH 545 0
DWIDTH 6 0
BBX 5 3 0 0
BITMAP
F8
88
F8
ENDCHAR
STARTCHAR BLACK VERTICAL RECTANGLE
ENCODING 9646
SWIDTH 545 0
DWIDTH 6 0
BBX 4 7 0 0
BITMAP
F0
F0
F0
F0
F0
F0
F0
ENDCHAR
STARTCHAR WHITE VERTICAL RECTANGLE
ENCODING 9647
SWIDTH 545 0
DWIDTH 6 0
BBX 4 7 0 0
BITMAP
F0
90
90
90
90
90
F0
ENDCHAR
STARTCHAR BLACK PARALLELOGRAM
ENCODING 9648
SWIDTH 545 0
DWIDTH 6 0
BBX 6 3 0 0
BITMAP
7C
FC
F8
ENDCHAR
STARTCHAR WHITE PARALLELOGRAM
ENCODING 9649
SWIDTH 545 0
DWIDTH 6 0
BBX 6 3 0 0
BITMAP
7C
84
F8
ENDCHAR
STARTCHAR BLACK UP-POINTING TRIANGLE
ENCODING 9650
SWIDTH 545 0
DWIDTH 6 0
BBX 5 6 0 0
BITMAP
20
20
70
70
F8
F8
ENDCHAR
STARTCHAR WHITE UP-POINTING TRIANGLE
ENCODING 9651
SWIDTH 545 0
DWIDTH 6 0
BBX 5 6 0 0
BITMAP
20
20
50
50
88
F8
ENDCHAR
STARTCHAR BLACK UP-POINTING SMALL TRIANGLE
ENCODING 9652
SWIDTH 545 0
DWIDTH 6 0
BBX 5 4 0 0
BITMAP
20
70
F8
F8
ENDCHAR
STARTCHAR WHITE UP-POINTING SMALL TRIANGLE
ENCODING 9653
SWIDTH 545 0
DWIDTH 6 0
BBX 5 4 0 0
BITMAP
20
50
88
F8
ENDCHAR
STARTCHAR BLACK RIGHT-POINTING TRIANGLE
ENCODING 9654
SWIDTH 545 0
DWIDTH 6 0
BBX 6 5 0 1
BITMAP
C0
F0
FC
F0
C0
ENDCHAR
STARTCHAR WHITE RIGHT-POINTING TRIANGLE
ENCODING 9655
SWIDTH 545 0
DWIDTH 6 0
BBX 6 5 0 1
BITMAP
C0
B0
8C
B0
C0
ENDCHAR
STARTCHAR BLACK RIGHT-POINTING SMALL TRIANGLE
ENCODING 9656
SWIDTH 545 0
DWIDTH 6 0
BBX 4 5 0 1
BITMAP
C0
E0
F0
E0
C0
ENDCHAR
STARTCHAR WHITE RIGHT-POINTING SMALL TRIANGLE
ENCODING 9657
SWIDTH 545 0
DWIDTH 6 0
BBX 4 5 0 1
BITMAP
C0
A0
90
A0
C0
ENDCHAR
STARTCHAR BLACK RIGHT-POINTING POINTER
ENCODING 9658
SWIDTH 545 0
DWIDTH 6 0
BBX 6 5 0 1
BITMAP
C0
F0
FC
F0
C0
ENDCHAR
STARTCHAR WHITE RIGHT-POINTING POINTER
ENCODING 9659
SWIDTH 545 0
DWIDTH 6 0
BBX 6 5 0 1
BITMAP
C0
B0
8C
B0
C0
ENDCHAR
STARTCHAR BLACK DOWN-POINTING TRIANGLE
ENCODING 9660
SWIDTH 545 0
DWIDTH 6 0
BBX 5 6 0 0
BITMAP
F8
F8
70
70
20
20
ENDCHAR
STARTCHAR WHITE DOWN-POINTING TRIANGLE
ENCODING 9661
SWIDTH 545 0
DWIDTH 6 0
BBX 5 6 0 0
BITMAP
F8
88
50
50
20
20
ENDCHAR
STARTCHAR BLACK DOWN-POINTING SMALL TRIANGLE
ENCODING 9662
SWIDTH 545 0
DWIDTH 6 0
BBX 5 4 0 0
BITMAP
F8
F8
70
20
ENDCHAR
STARTCHAR WHITE DOWN-POINTING SMALL TRIANGLE
ENCODING 9663
SWIDTH 545 0
DWIDTH 6 0
BBX 5 4 0 0
BITMAP
F8
88
50
20
ENDCHAR
STARTCHAR BLACK LEFT-POINTING TRIANGLE
ENCODING 9664
SWIDTH 545 0
DWIDTH 6 0
BBX 6 5 0 1
BITMAP
0C
3C
FC
3C
0C
ENDCHAR
STARTCHAR WHITE LEFT-POINTING TRIANGLE
ENCODING 9665
SWIDTH 545 0
DWIDTH 6 0
BBX 6 5 0 1
BITMAP
0C
34
C4
34
0C
ENDCHAR
STARTCHAR BLACK LEFT-POINTING SMALL TRIANGLE
ENCODING 9666
SWIDTH 545 0
DWIDTH 6 0
BBX 4 5 0 1
BITMAP
30
70
F0
70
30
ENDCHAR
STARTCHAR WHITE LEFT-POINTING SMALL TRIANGLE
ENCODING 9667
SWIDTH 545 0
DWIDTH 6 0
BBX 4 5 0 1
BITMAP
30
50
90
50
30
ENDCHAR
STARTCHAR BLACK LEFT-POINTING POINTER
ENCODING 9668
SWIDTH 545 0
DWIDTH 6 0
BBX 6 5 0 1
BITMAP
0C
3C
FC
3C
0C
ENDCHAR
STARTCHAR WHITE LEFT-POINTING POINTER
ENCODING 9669
SWIDTH 545 0
DWIDTH 6 0
BBX 6 5 0 1
BITMAP
0C
34
C4
34
0C
ENDCHAR
STARTCHAR BLACK DIAMOND
ENCODING 9670
SWIDTH 545 0
DWIDTH 6 0
BBX 5 5 0 1
BITMAP
20
70
F8
70
20
ENDCHAR
STARTCHAR WHITE DIAMOND
ENCODING 9671
SWIDTH 545 0
DWIDTH 6 0
BBX 5 5 0 1
BITMAP
20
50
88
50
20
ENDCHAR
STARTCHAR WHITE DIAMOND CONTAINING BLACK SMALL DIAMOND
ENCODING 9672
SWIDTH 545 0
DWIDTH 6 0
BBX 5 5 0 1
BITMAP
20
50
A8
50
20
ENDCHAR
STARTCHAR FISHEYE
ENCODING 9673
SWIDTH 545 0
DWIDTH 6 0
BBX 5 5 0 1
BITMAP
70
88
A8
88
70
ENDCHAR
STARTCHAR LOZENGE
ENCODING 9674
SWIDTH 545 0
DWIDTH 6 0
BBX 5 7 0 0
BITMAP
20
50
50
88
50
50
20
ENDCHAR
STARTCHAR WHITE CIRCLE
ENCODING 9675
SWIDTH 545 0
DWIDTH 6 0
BBX 5 5 0 1
BITMAP
70
88
88
88
70
ENDCHAR
STARTCHAR DOTTED CIRCLE
ENCODING 9676
SWIDTH 545 0
DWIDTH 6 0
BBX 5 5 0 1
BITMAP
50
88
00
88
50
ENDCHAR
STARTCHAR CIRCLE WITH VERTICAL FILL
ENCODING 9677
SWIDTH 545 0
DWIDTH 6 0
BBX 5 5 0 1
BITMAP
70
A8
A8
A8
70
ENDCHAR
STARTCHAR BULLSEYE
ENCODING 9678
SWIDTH 545 0
DWIDTH 6 0
BBX 5 5 0 1
BITMAP
70
88
A8
88
70
ENDCHAR
STARTCHAR BLACK CIRCLE
ENCODING 9679
SWIDTH 545 0
DWIDTH 6 0
BBX 4 4 1 2
BITMAP
60
F0
F0
60
ENDCHAR
STARTCHAR CIRCLE WITH LEFT HALF BLACK
ENCODING 9680
SWIDTH 545 0
DWIDTH 6 0
BBX 4 4 1 2
BITMAP
60
D0
D0
60
ENDCHAR
STARTCHAR CIRCLE WITH RIGHT HALF BLACK
ENCODING 9681
SWIDTH 545 0
DWIDTH 6 0
BBX 4 4 1 2
BITMAP
60
B0
B0
60
ENDCHAR
STARTCHAR CIRCLE WITH LOWER HALF BLACK
ENCODING 9682
SWIDTH 545 0
DWIDTH 6 0
BBX 4 4 1 2
BITMAP
60
F0
90
60
ENDCHAR
STARTCHAR CIRCLE WITH UPPER HALF BLACK
ENCODING 9683
SWIDTH 545 0
DWIDTH 6 0
BBX 4 4 1 2
BITMAP
60
90
F0
60
ENDCHAR
STARTCHAR CIRCLE WITH UPPER RIGHT QUADRANT BLACK
ENCODING 9684
SWIDTH 545 0
DWIDTH 6 0
BBX 4 4 1 2
BITMAP
60
B0
90
60
ENDCHAR
STARTCHAR CIRCLE WITH ALL BUT UPPER LEFT QUADRANT BLACK
ENCODING 9685
SWIDTH 545 0
DWIDTH 6 0
BBX 4 4 1 2
BITMAP
60
B0
F0
60
ENDCHAR
STARTCHAR LEFT HALF BLACK CIRCLE
ENCODING 9686
SWIDTH 545 0
DWIDTH 6 0
BBX 2 4 1 2
BITMAP
40
C0
C0
40
ENDCHAR
STARTCHAR RIGHT HALF BLACK CIRCLE
ENCODING 9687
SWIDTH 545 0
DWIDTH 6 0
BBX 2 4 3 2
BITMAP
80
C0
C0
80
ENDCHAR
STARTCHAR INVERSE BULLET
ENCODING 9688
SWIDTH 545 0
DWIDTH 6 0
BBX 6 11 0 -2
BITMAP
FC
FC
FC
FC
CC
84
84
CC
FC
FC
FC
ENDCHAR
STARTCHAR INVERSE WHITE CIRCLE
ENCODING 9689
SWIDTH 545 0
DWIDTH 6 0
BBX 6 11 0 -2
BITMAP
FC
FC
FC
FC
CC
B4
B4
CC
FC
FC
FC
ENDCHAR
STARTCHAR UPPER HALF INVERSE WHITE CIRCLE
ENCODING 9690
SWIDTH 545 0
DWIDTH 6 0
BBX 6 6 0 3
BITMAP
FC
FC
FC
FC
CC
B4
ENDCHAR
STARTCHAR LOWER HALF INVERSE WHITE CIRCLE
ENCODING 9691
SWIDTH 545 0
DWIDTH 6 0
BBX 6 5 0 -2
BITMAP
B4
CC
FC
FC
FC
ENDCHAR
STARTCHAR UPPER LEFT QUADRANT CIRCULAR ARC
ENCODING 9692
SWIDTH 545 0
DWIDTH 6 0
BBX 3 3 0 3
BITMAP
60
80
80
ENDCHAR
STARTCHAR UPPER RIGHT QUADRANT CIRCULAR ARC
ENCODING 9693
SWIDTH 545 0
DWIDTH 6 0
BBX 3 3 2 3
BITMAP
C0
20
20
ENDCHAR
STARTCHAR LOWER RIGHT QUADRANT CIRCULAR ARC
ENCODING 9694
SWIDTH 545 0
DWIDTH 6 0
BBX 3 3 2 1
BITMAP
20
20
C0
ENDCHAR
STARTCHAR LOWER LEFT QUADRANT CIRCULAR ARC
ENCODING 9695
SWIDTH 545 0
DWIDTH 6 0
BBX 3 3 0 1
BITMAP
80
80
60
ENDCHAR
STARTCHAR UPPER HALF CIRCLE
ENCODING 9696
SWIDTH 545 0
DWIDTH 6 0
BBX 5 3 0 3
BITMAP
70
88
88
ENDCHAR
STARTCHAR LOWER HALF CIRCLE
ENCODING 9697
SWIDTH 545 0
DWIDTH 6 0
BBX 6 3 0 1
BITMAP
84
44
38
ENDCHAR
STARTCHAR BLACK LOWER RIGHT TRIANGLE
ENCODING 9698
SWIDTH 545 0
DWIDTH 6 0
BBX 6 6 0 0
BITMAP
04
0C
1C
3C
7C
FC
ENDCHAR
STARTCHAR BLACK LOWER LEFT TRIANGLE
ENCODING 9699
SWIDTH 545 0
DWIDTH 6 0
BBX 6 6 0 0
BITMAP
80
C0
E0
F0
F8
FC
ENDCHAR
STARTCHAR BLACK UPPER LEFT TRIANGLE
ENCODING 9700
SWIDTH 545 0
DWIDTH 6 0
BBX 6 6 0 0
BITMAP
FC
F8
F0
E0
C0
80
ENDCHAR
STARTCHAR BLACK UPPER RIGHT TRIANGLE
ENCODING 9701
SWIDTH 545 0
DWIDTH 6 0
BBX 6 6 0 0
BITMAP
FC
7C
3C
1C
0C
04
ENDCHAR
STARTCHAR WHITE BULLET
ENCODING 9702
SWIDTH 545 0
DWIDTH 6 0
BBX 5 5 0 1
BITMAP
70
88
88
88
70
ENDCHAR
STARTCHAR SQUARE WITH LEFT HALF BLACK
ENCODING 9703
SWIDTH 545 0
DWIDTH 6 0
BBX 5 5 0 0
BITMAP
F8
C8
C8
C8
F8
ENDCHAR
STARTCHAR SQUARE WITH RIGHT HALF BLACK
ENCODING 9704
SWIDTH 545 0
DWIDTH 6 0
BBX 5 5 0 0
BITMAP
F8
98
98
98
F8
ENDCHAR
STARTCHAR SQUARE WITH UPPER LEFT DIAGONAL HALF BLACK
ENCODING 9705
SWIDTH 545 0
DWIDTH 6 0
BBX 5 5 0 0
BITMAP
F8
E8
C8
88
F8
ENDCHAR
STARTCHAR SQUARE WITH LOWER RIGHT DIAGONAL HALF BLACK
ENCODING 9706
SWIDTH 545 0
DWIDTH 6 0
BBX 5 5 0 0
BITMAP
F8
88
98
B8
F8
ENDCHAR
STARTCHAR WHITE SQUARE WITH VERTICAL BISECTING LINE
ENCODING 9707
SWIDTH 545 0
DWIDTH 6 0
BBX 5 5 0 0
BITMAP
F8
A8
A8
A8
F8
ENDCHAR
STARTCHAR WHITE UP-POINTING TRIANGLE WITH DOT
ENCODING 9708
SWIDTH 545 0
DWIDTH 6 0
BBX 5 7 0 0
BITMAP
20
20
50
50
A8
88
F8
ENDCHAR
STARTCHAR UP-POINTING TRIANGLE WITH LEFT HALF BLACK
ENCODING 9709
SWIDTH 545 0
DWIDTH 6 0
BBX 5 7 0 0
BITMAP
20
20
70
70
E8
E8
F8
ENDCHAR
STARTCHAR UP-POINTING TRIANGLE WITH RIGHT HALF BLACK
ENCODING 9710
SWIDTH 545 0
DWIDTH 6 0
BBX 5 7 0 0
BITMAP
20
20
70
70
B8
B8
F8
ENDCHAR
STARTCHAR LARGE CIRCLE
ENCODING 9711
SWIDTH 545 0
DWIDTH 6 0
BBX 6 6 0 0
BITMAP
78
84
84
84
84
78
ENDCHAR
STARTCHAR WHITE SQUARE WITH UPPER LEFT QUADRANT
ENCODING 9712
SWIDTH 545 0
DWIDTH 6 0
BBX 5 5 0 0
BITMAP
F8
A8
E8
88
F8
ENDCHAR
STARTCHAR WHITE SQUARE WITH LOWER LEFT QUADRANT
ENCODING 9713
SWIDTH 545 0
DWIDTH 6 0
BBX 5 5 0 0
BITMAP
F8
88
E8
A8
F8
ENDCHAR
STARTCHAR WHITE SQUARE WITH LOWER RIGHT QUADRANT
ENCODING 9714
SWIDTH 545 0
DWIDTH 6 0
BBX 5 5 0 0
BITMAP
F8
88
B8
A8
F8
ENDCHAR
STARTCHAR WHITE SQUARE WITH UPPER RIGHT QUADRANT
ENCODING 9715
SWIDTH 545 0
DWIDTH 6 0
BBX 5 5 0 0
BITMAP
F8
A8
B8
88
F8
ENDCHAR
STARTCHAR WHITE CIRCLE WITH UPPER LEFT QUADRANT
ENCODING 9716
SWIDTH 545 0
DWIDTH 6 0
BBX 5 5 0 0
BITMAP
70
A8
E8
88
70
ENDCHAR
STARTCHAR WHITE CIRCLE WITH LOWER LEFT QUADRANT
ENCODING 9717
SWIDTH 545 0
DWIDTH 6 0
BBX 5 5 0 0
BITMAP
70
88
E8
A8
70
ENDCHAR
STARTCHAR WHITE CIRCLE WITH LOWER RIGHT QUADRANT
ENCODING 9718
SWIDTH 545 0
DWIDTH 6 0
BBX 5 5 0 0
BITMAP
70
88
B8
A8
70
ENDCHAR
STARTCHAR WHITE CIRCLE WITH UPPER RIGHT QUADRANT
ENCODING 9719
SWIDTH 545 0
DWIDTH 6 0
BBX 5 5 0 0
BITMAP
70
A8
B8
88
70
ENDCHAR
STARTCHAR UPPER LEFT TRIANGLE
ENCODING 9720
SWIDTH 545 0
DWIDTH 6 0
BBX 4 4 0 3
BITMAP
F0
A0
C0
80
ENDCHAR
STARTCHAR UPPER RIGHT TRIANGLE
ENCODING 9721
SWIDTH 545 0
DWIDTH 6 0
BBX 4 4 2 3
BITMAP
F0
50
30
10
ENDCHAR
STARTCHAR LOWER LEFT TRIANGLE
ENCODING 9722
SWIDTH 545 0
DWIDTH 6 0
BBX 4 4 0 0
BITMAP
80
C0
A0
F0
ENDCHAR
STARTCHAR WHITE MEDIUM SQUARE
ENCODING 9723
SWIDTH 545 0
DWIDTH 6 0
BBX 6 6 0 0
BITMAP
FC
84
84
84
84
FC
ENDCHAR
STARTCHAR BLACK MEDIUM SQUARE
ENCODING 9724
SWIDTH 545 0
DWIDTH 6 0
BBX 6 6 0 0
BITMAP
FC
FC
FC
FC
FC
FC
ENDCHAR
STARTCHAR WHITE MEDIUM SMALL SQUARE
ENCODING 9725
SWIDTH 545 0
DWIDTH 6 0
BBX 5 5 0 1
BITMAP
F8
88
88
88
F8
ENDCHAR
STARTCHAR BLACK MEDIUM SMALL SQUARE
ENCODING 9726
SWIDTH 545 0
DWIDTH 6 0
BBX 5 5 0 1
BITMAP
F8
F8
F8
F8
F8
ENDCHAR
STARTCHAR LOWER RIGHT TRIANGLE
ENCODING 9727
SWIDTH 545 0
DWIDTH 6 0
BBX 4 4 2 0
BITMAP
10
30
50
F0
ENDCHAR
STARTCHAR BLACK SUN WITH RAYS
ENCODING 9728
SWIDTH 545 0
DWIDTH 6 0
BBX 5 7 0 0
BITMAP
20
88
70
F8
70
88
20
ENDCHAR
STARTCHAR CLOUD
ENCODING 9729
SWIDTH 545 0
DWIDTH 6 0
BBX 6 3 0 1
BITMAP
28
7C
FC
ENDCHAR
STARTCHAR UMBRELLA
ENCODING 9730
SWIDTH 545 0
DWIDTH 6 0
BBX 5 6 0 0
BITMAP
70
F8
20
20
20
40
ENDCHAR
STARTCHAR SNOWMAN
ENCODING 9731
SWIDTH 545 0
DWIDTH 6 0
BBX 6 11 0 -2
BITMAP
40
00
A4
70
50
A8
50
70
88
88
70
ENDCHAR
STARTCHAR COMET
ENCODING 9732
SWIDTH 545 0
DWIDTH 6 0
BBX 6 8 0 0
BITMAP
24
48
48
50
10
44
A8
40
ENDCHAR
STARTCHAR BLACK STAR
ENCODING 9733
SWIDTH 545 0
DWIDTH 6 0
BBX 5 5 0 1
BITMAP
20
20
F8
70
88
ENDCHAR
STARTCHAR WHITE STAR
ENCODING 9734
SWIDTH 545 0
DWIDTH 6 0
BBX 5 5 0 1
BITMAP
20
20
D8
70
88
ENDCHAR
STARTCHAR LIGHTNING
ENCODING 9735
SWIDTH 545 0
DWIDTH 6 0
BBX 4 7 0 0
BITMAP
10
20
40
80
50
30
70
ENDCHAR
STARTCHAR THUNDERSTORM
ENCODING 9736
SWIDTH 545 0
DWIDTH 6 0
BBX 5 7 0 0
BITMAP
F8
88
90
A0
A8
98
B8
ENDCHAR
STARTCHAR SUN
ENCODING 9737
SWIDTH 545 0
DWIDTH 6 0
BBX 5 5 0 0
BITMAP
70
88
A8
88
70
ENDCHAR
STARTCHAR BALLOT BOX
ENCODING 9744
SWIDTH 545 0
DWIDTH 6 0
BBX 6 6 0 0
BITMAP
FC
84
84
84
84
FC
ENDCHAR
STARTCHAR BALLOT BOX WITH CHECK
ENCODING 9745
SWIDTH 545 0
DWIDTH 6 0
BBX 6 6 0 0
BITMAP
FC
8C
94
D4
A4
FC
ENDCHAR
STARTCHAR WHITE SHOGI PIECE
ENCODING 9750
SWIDTH 545 0
DWIDTH 6 0
BBX 5 7 0 0
BITMAP
20
50
88
88
88
88
F8
ENDCHAR
STARTCHAR BLACK SHOGI PIECE
ENCODING 9751
SWIDTH 545 0
DWIDTH 6 0
BBX 5 7 0 0
BITMAP
20
70
F8
F8
F8
F8
F8
ENDCHAR
STARTCHAR WHITE RIGHT POINTING INDEX
ENCODING 9758
SWIDTH 545 0
DWIDTH 6 0
BBX 5 4 0 0
BITMAP
F8
D0
D0
E0
ENDCHAR
STARTCHAR TRIGRAM FOR HEAVEN
ENCODING 9776
SWIDTH 545 0
DWIDTH 6 0
BBX 5 8 0 0
BITMAP
F8
F8
00
F8
F8
00
F8
F8
ENDCHAR
STARTCHAR TRIGRAM FOR LAKE
ENCODING 9777
SWIDTH 545 0
DWIDTH 6 0
BBX 5 8 0 0
BITMAP
D8
D8
00
F8
F8
00
F8
F8
ENDCHAR
STARTCHAR TRIGRAM FOR FIRE
ENCODING 9778
SWIDTH 545 0
DWIDTH 6 0
BBX 5 8 0 0
BITMAP
F8
F8
00
D8
D8
00
F8
F8
ENDCHAR
STARTCHAR TRIGRAM FOR THUNDER
ENCODING 9779
SWIDTH 545 0
DWIDTH 6 0
BBX 5 8 0 0
BITMAP
D8
D8
00
D8
D8
00
F8
F8
ENDCHAR
STARTCHAR TRIGRAM FOR WIND
ENCODING 9780
SWIDTH 545 0
DWIDTH 6 0
BBX 5 8 0 0
BITMAP
F8
F8
00
F8
F8
00
D8
D8
ENDCHAR
STARTCHAR TRIGRAM FOR WATER
ENCODING 9781
SWIDTH 545 0
DWIDTH 6 0
BBX 5 8 0 0
BITMAP
D8
D8
00
F8
F8
00
D8
D8
ENDCHAR
STARTCHAR TRIGRAM FOR MOUNTAIN
ENCODING 9782
SWIDTH 545 0
DWIDTH 6 0
BBX 5 8 0 0
BITMAP
F8
F8
00
D8
D8
00
D8
D8
ENDCHAR
STARTCHAR TRIGRAM FOR EARTH
ENCODING 9783
SWIDTH 545 0
DWIDTH 6 0
BBX 5 8 0 0
BITMAP
D8
D8
00
D8
D8
00
D8
D8
ENDCHAR
STARTCHAR MERCURY
ENCODING 9791
SWIDTH 545 0
DWIDTH 6 0
BBX 5 9 0 -3
BITMAP
88
70
88
88
88
70
20
70
20
ENDCHAR
STARTCHAR FEMALE SIGN
ENCODING 9792
SWIDTH 545 0
DWIDTH 6 0
BBX 5 8 0 -3
BITMAP
70
88
88
88
70
20
70
20
ENDCHAR
STARTCHAR EARTH
ENCODING 9793
SWIDTH 545 0
DWIDTH 6 0
BBX 5 8 0 0
BITMAP
20
70
20
70
88
88
88
70
ENDCHAR
STARTCHAR MALE SIGN
ENCODING 9794
SWIDTH 545 0
DWIDTH 6 0
BBX 6 7 0 0
BITMAP
1C
0C
74
88
88
88
70
ENDCHAR
STARTCHAR BLACK SPADE SUIT
ENCODING 9824
SWIDTH 545 0
DWIDTH 6 0
BBX 5 8 0 -1
BITMAP
20
20
70
F8
F8
70
20
70
ENDCHAR
STARTCHAR WHITE HEART SUIT
ENCODING 9825
SWIDTH 545 0
DWIDTH 6 0
BBX 5 5 0 0
BITMAP
50
A8
88
50
20
ENDCHAR
STARTCHAR WHITE DIAMOND SUIT
ENCODING 9826
SWIDTH 545 0
DWIDTH 6 0
BBX 5 6 0 0
BITMAP
20
50
88
88
50
20
ENDCHAR
STARTCHAR BLACK CLUB SUIT
ENCODING 9827
SWIDTH 545 0
DWIDTH 6 0
BBX 5 8 0 -1
BITMAP
70
70
20
F8
F8
F8
20
70
ENDCHAR
STARTCHAR WHITE SPADE SUIT
ENCODING 9828
SWIDTH 545 0
DWIDTH 6 0
BBX 5 8 0 -1
BITMAP
20
20
50
88
88
70
20
70
ENDCHAR
STARTCHAR BLACK HEART SUIT
ENCODING 9829
SWIDTH 545 0
DWIDTH 6 0
BBX 5 5 0 1
BITMAP
50
F8
F8
70
20
ENDCHAR
STARTCHAR BLACK DIAMOND SUIT
ENCODING 9830
SWIDTH 545 0
DWIDTH 6 0
BBX 5 9 0 -2
BITMAP
20
20
70
70
F8
70
70
20
20
ENDCHAR
STARTCHAR WHITE CLUB SUIT
ENCODING 9831
SWIDTH 545 0
DWIDTH 6 0
BBX 5 8 0 -1
BITMAP
70
50
20
F8
A8
F8
20
70
ENDCHAR
STARTCHAR QUARTER NOTE
ENCODING 9833
SWIDTH 545 0
DWIDTH 6 0
BBX 3 7 0 0
BITMAP
20
20
20
20
20
E0
E0
ENDCHAR
STARTCHAR EIGHTH NOTE
ENCODING 9834
SWIDTH 545 0
DWIDTH 6 0
BBX 5 7 0 0
BITMAP
30
28
28
20
20
E0
E0
ENDCHAR
STARTCHAR BEAMED EIGHTH NOTES
ENCODING 9835
SWIDTH 545 0
DWIDTH 6 0
BBX 5 7 0 0
BITMAP
78
48
48
48
48
D8
D8
ENDCHAR
STARTCHAR BEAMED SIXTEENTH NOTES
ENCODING 9836
SWIDTH 545 0
DWIDTH 6 0
BBX 5 7 0 0
BITMAP
78
78
48
78
48
D8
D8
ENDCHAR
STARTCHAR MUSIC FLAT SIGN
ENCODING 9837
SWIDTH 545 0
DWIDTH 6 0
BBX 3 7 0 0
BITMAP
80
80
80
80
E0
A0
C0
ENDCHAR
STARTCHAR MUSIC NATURAL SIGN
ENCODING 9838
SWIDTH 545 0
DWIDTH 6 0
BBX 4 8 0 -1
BITMAP
80
90
B0
D0
B0
D0
90
10
ENDCHAR
STARTCHAR MUSIC SHARP SIGN
ENCODING 9839
SWIDTH 545 0
DWIDTH 6 0
BBX 5 8 0 -1
BITMAP
10
58
70
D0
58
70
D0
40
ENDCHAR
STARTCHAR MEDIUM BLACK CIRCLE
ENCODING 9899
SWIDTH 454 0
DWIDTH 5 0
BBX 5 5 0 1
BITMAP
70
F8
F8
F8
70
ENDCHAR
STARTCHAR uniE0A0
ENCODING 57504
SWIDTH 545 0
DWIDTH 6 0
BBX 6 11 0 -2
BITMAP
C0
C0
D8
FC
D8
D8
B8
70
E0
C0
C0
ENDCHAR
STARTCHAR uniE0A1
ENCODING 57505
SWIDTH 545 0
DWIDTH 6 0
BBX 4 9 1 -1
BITMAP
C0
C0
C0
F0
00
D0
D0
B0
B0
ENDCHAR
STARTCHAR uniE0A2
ENCODING 57506
SWIDTH 545 0
DWIDTH 6 0
BBX 6 7 0 0
BITMAP
30
48
48
FC
CC
CC
78
ENDCHAR
STARTCHAR uniE0B0
ENCODING 57520
SWIDTH 545 0
DWIDTH 6 0
BBX 6 11 0 -2
BITMAP
80
C0
E0
F0
F8
FC
F8
F0
E0
C0
80
ENDCHAR
STARTCHAR uniE0B1
ENCODING 57521
SWIDTH 545 0
DWIDTH 6 0
BBX 6 11 0 -2
BITMAP
80
40
20
10
08
04
08
10
20
40
80
ENDCHAR
STARTCHAR uniE0B2
ENCODING 57522
SWIDTH 545 0
DWIDTH 6 0
BBX 6 11 0 -2
BITMAP
04
0C
1C
3C
7C
FC
7C
3C
1C
0C
04
ENDCHAR
STARTCHAR uniE0B3
ENCODING 57523
SWIDTH 545 0
DWIDTH 6 0
BBX 6 11 0 -2
BITMAP
04
08
10
20
40
80
40
20
10
08
04
ENDCHAR
ENDFONT
